<svg height="512pt" viewBox="0 0 512 512" width="512pt" xmlns="http://www.w3.org/2000/svg"><path d="m440.890625 0h-369.78125c-39.253906.0429688-71.0664062 31.855469-71.109375 71.109375v369.78125c.0429688 39.253906 31.855469 71.066406 71.109375 71.109375h369.78125c39.253906-.042969 71.066406-31.855469 71.109375-71.109375v-369.78125c-.042969-39.253906-31.855469-71.0664062-71.109375-71.109375zm42.664063 440.890625c-.023438 23.550781-19.113282 42.640625-42.664063 42.664063h-369.78125c-23.550781-.023438-42.640625-19.113282-42.664063-42.664063v-369.78125c.023438-23.550781 19.113282-42.640625 42.664063-42.664063h369.78125c23.550781.023438 42.640625 19.113282 42.664063 42.664063zm0 0"/><path d="m384 113.777344h-256c-7.855469 0-14.222656 6.367187-14.222656 14.222656s6.367187 14.222656 14.222656 14.222656h256c7.855469 0 14.222656-6.367187 14.222656-14.222656s-6.367187-14.222656-14.222656-14.222656zm0 0"/><path d="m327.109375 227.554688c7.855469 0 14.222656-6.367188 14.222656-14.222657 0-7.851562-6.367187-14.222656-14.222656-14.222656h-142.21875c-7.855469 0-14.222656 6.371094-14.222656 14.222656 0 7.855469 6.367187 14.222657 14.222656 14.222657zm0 0"/><path d="m384 284.445312h-256c-7.855469 0-14.222656 6.367188-14.222656 14.222657 0 7.851562 6.367187 14.222656 14.222656 14.222656h256c7.855469 0 14.222656-6.371094 14.222656-14.222656 0-7.855469-6.367187-14.222657-14.222656-14.222657zm0 0"/><path d="m327.109375 369.777344h-142.21875c-7.855469 0-14.222656 6.367187-14.222656 14.222656s6.367187 14.222656 14.222656 14.222656h142.21875c7.855469 0 14.222656-6.367187 14.222656-14.222656s-6.367187-14.222656-14.222656-14.222656zm0 0"/></svg>