<svg id="Capa_1" enable-background="new 0 0 512.284 512.284" height="512" viewBox="0 0 512.284 512.284" width="512" xmlns="http://www.w3.org/2000/svg"><g><path d="m484 362-45.858 45.858v-311.716c0-33.084-26.916-60-60-60h-184v40h184c11.028 0 20 8.972 20 20v311.716l-45.858-45.858-28.284 28.284 94.142 94.142 94.142-94.142z"/><path d="m114.142 416.142v-311.716l45.858 45.858 28.284-28.284-94.142-94.142-94.142 94.142 28.284 28.284 45.858-45.858v311.716c0 33.084 26.916 60 60 60h184v-40h-184c-11.028 0-20-8.972-20-20z"/></g></svg>