<svg height="512pt" viewBox="0 -51 512 512" width="512pt" xmlns="http://www.w3.org/2000/svg"><path d="m217.597656 0h-204.796875c-7.070312 0-12.800781 5.730469-12.800781 12.800781v204.796875c0 7.066406 5.730469 12.800782 12.800781 12.800782h140.546875c-2.910156 70.695312-30.8125 102.398437-89.34375 102.398437-7.066406 0-12.796875 5.730469-12.796875 12.796875v51.199219c0 7.070312 5.730469 12.800781 12.796875 12.800781 76.765625 0 166.398438-50.273438 166.398438-191.996094v-204.796875c0-7.070312-5.730469-12.800781-12.796875-12.800781-.003907 0-.007813 0-.007813 0zm-12.800781 217.597656c0 115.023438-63.921875 160.621094-127.996094 165.875v-25.550781c67.964844-5.121094 102.398438-52.273437 102.398438-140.324219 0-7.066406-5.734375-12.800781-12.800781-12.800781h-140.796876v-179.195313h179.195313zm0 0"/><path d="m499.195312 0h-204.800781c-7.066406 0-12.796875 5.730469-12.796875 12.800781v204.796875c0 7.066406 5.730469 12.800782 12.796875 12.800782h140.550781c-2.914062 70.695312-30.8125 102.398437-89.34375 102.398437-7.066406 0-12.800781 5.730469-12.800781 12.796875v51.199219c0 7.070312 5.734375 12.800781 12.800781 12.800781 76.761719 0 166.398438-50.273438 166.398438-191.996094v-204.796875c0-7.070312-5.730469-12.800781-12.800781-12.800781zm-12.800781 217.597656c0 115.023438-63.925781 160.621094-128 165.875v-25.550781c67.96875-5.121094 102.398438-52.273437 102.398438-140.324219 0-7.066406-5.730469-12.800781-12.796875-12.800781h-140.800782v-179.195313h179.199219zm0 0"/></svg>